<svg xmlns="http://www.w3.org/2000/svg" viewBox="0 0 24 24"><path d="M2 9.5V8.1h5.2v1.4H5.5v5.1h1.7V16H2v-1.4h1.7V9.5H2zM11.2 12.5c-.9-.3-1.5-.6-1.8-.9-.3-.3-.4-.8-.4-1.3 0-.7.2-1.3.7-1.7s1.2-.6 2.1-.6a4.87 4.87 0 0 1 2.4.5V10c-.4-.2-.7-.4-1.1-.5-.4-.1-.8-.2-1.1-.2-.4 0-.7.1-1 .2-.2.2-.3.4-.3.6 0 .2.1.4.2.5s.5.3 1 .5l.7.3c.7.2 1.2.5 1.6.9s.5.9.5 1.4c0 .8-.3 1.4-.8 1.8-.5.4-1.3.6-2.4.6-.4 0-.9 0-1.3-.1s-.9-.2-1.3-.4V14c.5.3.9.5 1.3.7s.9.2 1.3.2.8-.1 1-.3.4-.4.4-.7c0-.2-.1-.4-.2-.6-.2-.2-.4-.3-.7-.4l-.8-.4zM16 12.1c0-1.3.3-2.4.8-3.1S18 8 19 8c1 0 1.8.3 2.3 1s.8 1.7.8 3.1c0 1.3-.3 2.4-.8 3-.5.7-1.3 1-2.3 1-1 0-1.8-.3-2.3-1-.5-.7-.7-1.7-.7-3zm3-2.7c-.4 0-.8.2-1 .6-.2.4-.3 1.1-.3 2.1 0 .9.1 1.6.3 2s.5.6 1 .6c.4 0 .8-.2 1-.6s.3-1.1.3-2c0-.9-.1-1.6-.3-2.1-.2-.4-.5-.6-1-.6z"/><path d="M6.3 6.4c.9-.9 1.9-1.6 3.1-2-.3.6-.6 1.3-.9 2h2.2c.4-.8.8-1.6 1.3-2.4.5.7.9 1.5 1.3 2.4h2.2c-.2-.7-.5-1.3-.9-2 1.2.4 2.2 1.1 3.1 2h2.6A9.97 9.97 0 0 0 12 2C8.5 2 5.5 3.7 3.7 6.4h2.6zM17.7 17.6c-.9.9-1.9 1.6-3.1 2 .3-.6.6-1.3.9-2h-2.2c-.4.8-.8 1.6-1.3 2.4-.5-.7-.9-1.5-1.3-2.4H8.5c.2.7.5 1.3.9 2a7.9 7.9 0 0 1-3.1-2H3.7C5.5 20.3 8.5 22 12 22c3.5 0 6.5-1.7 8.3-4.4h-2.6z"/></svg>