<svg viewBox="0 0 24 24" xmlns="http://www.w3.org/2000/svg"><path d="m21 1h-7l-1 3h-10a2 2 0 0 0 -2 2v15c0 1.1.9 2 2 2h9l1-3h8a2 2 0 0 0 2-2v-15a2 2 0 0 0 -2-2zm-10.96 11.95c-.26.38-.55.75-.86 1.1a10.02 10.02 0 0 1 -2.05-3.47h3.7zm1.22-3.66h-1.44v-1.29h-1.29v1.29h-4.53v1.3h1.9a11.16 11.16 0 0 0 2.4 4.22l.02.02-3.3 3.25.92.92 3.1-3.1-1.04 3.1 2 2.5h-6.5a1 1 0 0 1 -1-1v-14a1 1 0 0 1 1-1h9.04zm9.4 3.22c0 1.04-.06 1.78-.2 2.22-.12.44-.34.8-.66 1.09-.3.27-.65.47-1.04.6s-.82.2-1.3.2-.91-.07-1.3-.2-.73-.33-1.04-.6a2.32 2.32 0 0 1 -.67-1.1 8.73 8.73 0 0 1 -.2-2.21v-6.31h1.39v6.92c0 .5.01.85.04 1.07s.08.37.14.48c.15.27.36.48.64.61.27.14.6.2 1 .2s.73-.06 1-.2.49-.34.64-.6c.07-.12.11-.28.14-.5.03-.2.04-.55.04-1.04v-6.92h1.38z"/></svg>