<svg height="1024" viewBox="0 0 1024 1024" width="1024" xmlns="http://www.w3.org/2000/svg"><path d="m950.509 941.474h-97.445c-13.397 0-24.363-10.962-24.363-24.363s10.962-24.363 24.363-24.363h97.445c13.397 0 24.363 10.962 24.363 24.363s-10.962 24.363-24.363 24.363z"/><path d="m755.614 941.474h-97.445c-13.397 0-24.363-10.962-24.363-24.363s10.962-24.363 24.363-24.363h97.445c13.397 0 24.363 10.962 24.363 24.363s-10.962 24.363-24.363 24.363z"/><path d="m560.723 941.474h-97.445c-13.397 0-24.363-10.962-24.363-24.363s10.962-24.363 24.363-24.363h97.445c13.397 0 24.363 10.962 24.363 24.363s-10.962 24.363-24.363 24.363z"/><path d="m365.832 941.474h-97.445c-13.397 0-24.363-10.962-24.363-24.363s10.962-24.363 24.363-24.363h97.445c13.397 0 24.363 10.962 24.363 24.363s-10.962 24.363-24.363 24.363z"/><path d="m170.938 941.474h-97.445c-13.397 0-24.363-10.962-24.363-24.363s10.962-24.363 24.363-24.363h97.445c13.397 0 24.363 10.962 24.363 24.363s-10.962 24.363-24.363 24.363z"/><path d="m256.662 418.921v42.939c-41.719-2.282-68.213 22.229-71.714 57.708v108.255h-44.764v-207.377h44.764v41.262c14.007-28.017 38.98-42.786 71.714-42.786z"/><path d="m640.202 498.854v128.965h-44.764v-116.478c0-31.519-18.728-50.704-49.18-50.704-35.478 1.219-56.945 28.471-56.945 64.711v102.471h-44.764v-116.478c0-31.519-18.271-50.704-48.723-50.704-35.932 1.219-57.708 28.471-57.708 64.711v102.471h-44.459v-207.377h44.459v40.195c14.464-29.233 40.957-41.719 75.216-41.719 36.998 0 62.425 18.271 72.172 49.942 13.246-34.716 40.957-49.942 78.718-49.942 47.503 0 75.978 30.452 75.978 79.937z"/><path d="m897.827 338.679v289.14h-44.764v-35.478c-14.769 24.211-39.738 37.456-72.934 37.456-59.685 0-99.427-43.243-99.427-106.43 0-62.425 40.195-104.906 98.665-104.906 33.497 0 58.467 13.702 73.692 37.76v-117.697h44.764zm-44.765 186.214c0-40.195-26.188-68.213-63.492-68.213-37.456 0-63.492 28.471-63.949 68.213.457 39.437 26.188 67.451 63.949 67.451 37.303 0 63.492-28.017 63.492-67.451z"/></svg>