<svg height="1024" viewBox="0 0 1024 1024" width="1024" xmlns="http://www.w3.org/2000/svg"><path d="m950.497 941.389h-97.443c-13.397 0-24.359-10.962-24.359-24.359s10.962-24.359 24.359-24.359h97.443c13.397 0 24.359 10.962 24.359 24.359s-10.962 24.359-24.359 24.359z"/><path d="m755.61 941.389h-97.443c-13.397 0-24.359-10.962-24.359-24.359s10.962-24.359 24.359-24.359h97.443c13.397 0 24.359 10.962 24.359 24.359s-10.962 24.359-24.359 24.359z"/><path d="m560.723 941.389h-97.443c-13.397 0-24.359-10.962-24.359-24.359s10.962-24.359 24.359-24.359h97.443c13.397 0 24.359 10.962 24.359 24.359s-10.962 24.359-24.359 24.359z"/><path d="m365.836 941.389h-97.443c-13.397 0-24.359-10.962-24.359-24.359s10.962-24.359 24.359-24.359h97.443c13.397 0 24.359 10.962 24.359 24.359s-10.962 24.359-24.359 24.359z"/><path d="m170.949 941.389h-97.443c-13.397 0-24.359-10.962-24.359-24.359s10.962-24.359 24.359-24.359h97.443c13.397 0 24.359 10.962 24.359 24.359s-10.962 24.359-24.359 24.359z"/><path d="m152.983 454.325c-17.508 0-30.452 5.784-30.452 20.705 0 38.218 110.233 17.508 109.928 92.724 0 42.477-37.76 61.51-79.476 61.51-30.452 0-62.729-10.2-83.435-28.776l15.988-31.972c17.813 15.988 46.741 25.731 69.276 25.731 19.033 0 33.954-6.699 33.954-22.229 0-42.477-109.166-18.728-108.709-93.487 0-42.024 36.693-59.99 76.431-59.99 26.188 0 53.745 7.765 72.472 21.01l-16.445 33.192c-18.271-11.42-41.262-18.423-59.533-18.423z"/><path d="m478.351 498.781v128.961h-44.764v-116.474c0-31.213-18.728-50.243-49.938-50.243-36.998.457-59.228 28.013-59.228 64.707v102.01h-44.764v-289.132h44.764v122.415c14.769-29.233 41.262-42.024 76.736-42.024 48.418-.152 77.193 30.3 77.193 79.781z"/><path d="m735.205 420.373v207.373h-44.459v-35.018c-15.226 23.753-39.738 36.998-72.472 36.998-59.685 0-99.423-43.24-99.423-106.426 0-61.967 39.433-104.449 97.899-104.902 33.497-.457 58.923 12.79 73.997 36.998v-35.018h44.459zm-44.459 111.905v-15.226c-3.502-35.931-28.013-60.447-63.187-60.447-37.456 0-63.492 28.471-63.949 68.209.457 39.433 26.188 67.451 63.949 67.451 35.169 0 59.685-24.512 63.187-59.99z"/><path d="m914.562 354.446v273.3h-45.981v-231.885h-58.923v-41.262h104.902z"/></svg>