<svg height="1024" viewBox="0 0 1024 1024" width="1024" xmlns="http://www.w3.org/2000/svg"><path d="m936.681 936.526h-95.871c-13.181 0-23.966-10.785-23.966-23.966s10.785-23.966 23.966-23.966h95.871c13.181 0 23.966 10.785 23.966 23.966s-10.785 23.966-23.966 23.966z"/><path d="m744.939 936.526h-95.871c-13.181 0-23.966-10.785-23.966-23.966s10.785-23.966 23.966-23.966h95.871c13.181 0 23.966 10.785 23.966 23.966s-10.785 23.966-23.966 23.966z"/><path d="m553.196 936.526h-95.871c-13.181 0-23.966-10.785-23.966-23.966s10.785-23.966 23.966-23.966h95.871c13.181 0 23.966 10.785 23.966 23.966s-10.785 23.966-23.966 23.966z"/><path d="m361.454 936.526h-95.871c-13.181 0-23.966-10.785-23.966-23.966s10.785-23.966 23.966-23.966h95.871c13.181 0 23.966 10.785 23.966 23.966s-10.785 23.966-23.966 23.966z"/><path d="m169.711 936.526h-95.871c-13.181 0-23.966-10.785-23.966-23.966s10.785-23.966 23.966-23.966h95.871c13.181 0 23.966 10.785 23.966 23.966s-10.785 23.966-23.966 23.966z"/><path d="m152.036 457.321c-17.226 0-29.961 5.691-29.961 20.371 0 37.601 108.454 17.226 108.154 91.228 0 41.792-37.151 60.518-78.193 60.518-29.961 0-61.717-10.036-82.088-28.311l15.73-31.457c17.526 15.73 45.987 25.316 68.158 25.316 18.726 0 33.406-6.59 33.406-21.871 0-41.792-107.404-18.426-106.955-91.978 0-41.346 36.101-59.022 75.198-59.022 25.766 0 52.877 7.64 71.303 20.671l-16.179 32.656c-17.976-11.235-40.596-18.126-58.572-18.126z"/><path d="m472.153 501.06v126.88h-44.042v-114.595c0-30.709-18.426-49.432-49.132-49.432-36.401.45-58.272 27.561-58.272 63.663v100.364h-44.042v-284.466h44.042v120.439c14.531-28.761 40.596-41.346 75.498-41.346 47.637-.15 75.948 29.811 75.948 78.493z"/><path d="m724.863 423.916v204.027h-43.742v-34.453c-14.98 23.37-39.097 36.401-71.303 36.401-58.722 0-97.819-42.542-97.819-104.709 0-60.967 38.797-102.764 96.319-103.21 32.956-.45 57.972 12.584 72.803 36.401v-34.453h43.742zm-43.741 110.1v-14.98c-3.445-35.352-27.561-59.472-62.167-59.472-36.851 0-62.467 28.011-62.917 67.108.45 38.797 25.766 66.362 62.917 66.362 34.602 0 58.722-24.116 62.167-59.022z"/><path d="m913.91 431.557c0-21.871-17.676-34.453-47.187-34.453-24.116 0-52.578 12.584-75.498 33.406l-18.426-34.902c29.961-23.816 64.863-38.347 100.064-38.347 52.578 0 88.233 26.516 88.233 67.858 0 26.816-21.121 57.072-50.632 87.783l-73.702 74.448h137.365v40.596h-196.687v-33.406l102.464-105.909c20.221-20.221 34.006-41.643 34.006-57.072z"/></svg>