<svg height="1024" viewBox="0 0 1024 1024" width="1024" xmlns="http://www.w3.org/2000/svg"><path d="m937.133 936.686h-95.922c-13.188 0-23.979-10.791-23.979-23.979s10.791-23.979 23.979-23.979h95.922c13.188 0 23.979 10.791 23.979 23.979s-10.791 23.979-23.979 23.979z"/><path d="m745.288 936.686h-95.922c-13.188 0-23.979-10.791-23.979-23.979s10.791-23.979 23.979-23.979h95.922c13.188 0 23.979 10.791 23.979 23.979s-10.791 23.979-23.979 23.979z"/><path d="m553.443 936.686h-95.922c-13.188 0-23.979-10.791-23.979-23.979s10.791-23.979 23.979-23.979h95.922c13.188 0 23.979 10.791 23.979 23.979s-10.791 23.979-23.979 23.979z"/><path d="m361.598 936.686h-95.922c-13.188 0-23.979-10.791-23.979-23.979s10.791-23.979 23.979-23.979h95.922c13.188 0 23.979 10.791 23.979 23.979s-10.791 23.979-23.979 23.979z"/><path d="m169.752 936.686h-95.922c-13.188 0-23.979-10.791-23.979-23.979s10.791-23.979 23.979-23.979h95.922c13.188 0 23.979 10.791 23.979 23.979s-10.791 23.979-23.979 23.979z"/><path d="m152.064 457.223c-17.235 0-29.977 5.694-29.977 20.382 0 37.621 108.513 17.235 108.213 91.277 0 41.815-37.171 60.55-78.236 60.55-29.977 0-61.751-10.041-82.133-28.327l15.739-31.473c17.535 15.739 46.012 25.33 68.195 25.33 18.736 0 33.424-6.594 33.424-21.883 0-41.815-107.462-18.436-107.012-92.028 0-41.368 36.121-59.054 75.239-59.054 25.78 0 52.906 7.644 71.341 20.682l-16.188 32.674c-17.985-11.241-40.618-18.135-58.604-18.135z"/><path d="m472.357 500.985v126.948h-44.065v-114.656c0-30.726-18.436-49.459-49.159-49.459-36.421.45-58.304 27.576-58.304 63.697v100.418h-44.065v-284.62h44.065v120.504c14.538-28.777 40.618-41.368 75.539-41.368 47.662-.15 75.989 29.827 75.989 78.536z"/><path d="m725.203 423.8v204.137h-43.765v-34.471c-14.989 23.383-39.118 36.421-71.341 36.421-58.754 0-97.871-42.565-97.871-104.766 0-61 38.818-102.819 96.371-103.265 32.974-.45 58.003 12.591 72.842 36.421v-34.471h43.765zm-43.765 110.159v-14.989c-3.447-35.371-27.576-59.504-62.201-59.504-36.871 0-62.501 28.026-62.951 67.144.45 38.818 25.78 66.398 62.951 66.398 34.62 0 58.754-24.129 62.201-59.054z"/><path d="m874.034 457.52c61 0 100.118 34.471 100.118 81.385 0 54.856-40.618 90.527-103.565 90.527-32.974 0-71.792-12.292-99.371-30.726l18.436-36.871c22.633 17.985 50.659 28.327 75.989 28.327 37.621 0 60.25-18.436 60.25-48.413 0-27.576-22.633-44.515-59.504-44.515-17.235 0-54.856 1.5-74.042 3.897v-142.387h170.413v40.618h-128.595v58.304c11.992-.15 29.527-.15 39.868-.15z"/></svg>