<svg xmlns="http://www.w3.org/2000/svg" viewBox="0 0 350 140"><style>.st0{opacity:.1;fill:#3cf}.st10{fill:#366}.st12{fill:#399}</style><path class="st0" d="M350 0v140H0V0"/><path d="M331.9 31l96.2 54.5-67 54.5-69.1-39.9L331.9 31z" opacity=".8" fill="#0ff"/><circle cx="261.9" cy="156.4" r="57.5" opacity=".8" fill="#39c"/><path d="M67.5 55.1l67.8 52.6-93.1 29.4 25.3-82z" opacity=".8" fill="#3880ff"/><path d="M252.2-26.4l25.2-14.5c6.5-3.8 14.6-3.8 21.1 0l25.2 14.5c6.5 3.8 10.6 10.7 10.6 18.3V21c0 7.5-4 14.5-10.5 18.3l-25.2 14.6c-6.5 3.8-14.6 3.8-21.2 0l-25.2-14.6a21.08 21.08 0 0 1-10.5-18.2L241.6-8c0-7.6 4-14.6 10.6-18.4z" opacity=".8" fill="#066"/><circle cx="-12.6" cy="124" r="38.5" opacity=".8" fill="#cfc"/><path d="M6.8 211.4c-3.7-3.1-4.2-8.3-1-11.9l89.9-97.4c3.2-3.4 8.7-3.8 12.6-.7 3.7 3.1 4.2 8.3 1 11.9l-89.9 97.4c-3.2 3.6-8.8 3.8-12.6.7z" opacity=".8" fill="#11d3ea"/><path d="M211.4-31c.1 5.1-3.9 43.1-9.1 43.5l-85 7c-5.5.4-10.3-30.1-10.8-35.5" opacity=".8" fill="#6cc"/><ellipse transform="rotate(-80.78 254.88 60)" cx="254.9" cy="60" rx="23.6" ry="23.6" opacity=".8" fill="#0cd1e8"/><path d="M19.7 75.8l-26.1 1.3-8.3-13.1c0-10.8 3.5-32 13.5-36.1l41.6 10.9-20.7 37z" opacity=".8" fill="#099"/><path class="st10" d="M110 35.5v-12M110 58.5v-12"/><path d="M42.3 23.6L12.9-4.6l9.7-39.6 39.1-11.4 29.4 28.2-9.7 39.5-39.1 11.5z" opacity=".8" fill="#3fc"/><path class="st0" d="M31 31h350"/><path class="st12" d="M153 37.5h12v64h-12v-64zM180.5 37.5h12v64h-12v-64z"/><path class="st12" d="M141 52.5h64v12h-64M141 75.5h64v12h-64"/></svg>