<svg enable-background="new 0 0 350 140" viewBox="0 0 350 140" xmlns="http://www.w3.org/2000/svg"><path d="m331.9 31 96.2 54.5-67 54.5-69.1-39.9z" fill="#f04141" opacity=".8"/><circle cx="177.5" cy="134.9" fill="#10dc60" opacity=".8" r="57.5"/><path d="m67.5 55.1 67.8 52.6-93.1 29.4z" fill="#3880ff" opacity=".8"/><path d="m215.6-20.3 46.4-26.7 46.3 26.7v53.5l-46.3 26.8-46.3-26.8z" fill="#ffce00" opacity=".8"/><circle cx="-21.6" cy="118" fill="#7044ff" opacity=".8" r="38.5"/><path d="m6.8 211.4c-3.7-3.1-4.2-8.3-1-11.9l89.9-97.4c3.2-3.4 8.7-3.8 12.6-.7 3.7 3.1 4.2 8.3 1 11.9l-89.9 97.4c-3.2 3.6-8.8 3.8-12.6.7z" fill="#11d3ea" opacity=".8"/><path d="m208.5 166.6c-4-3.2-4.8-9.1-1.8-13.4l49.3-69.6c3.2-4.5 9.4-5.5 13.9-2.4" fill="#7044ff" opacity=".8"/><circle cx="239.3" cy="60" fill="#0cd1e8" opacity=".8" r="20.5"/><path d="m6.9 72.7-26.1 1.3-8.3-13.1c0-10.8 3.5-32 13.5-36.1l41.6 10.9z" fill="#099" opacity=".8"/><g fill="#366"><path d="m122 8.5h12v64h-12z"/><path d="m149.5 8.5h12v64h-12z"/><path d="m136-2.5h12v64h-12z" transform="matrix(.00000035 -1 1 .00000035 112.5 171.5)"/><path d="m136 20.5h12v64h-12z" transform="matrix(.00000035 -1 1 .00000035 89.5 194.5)"/></g><path d="m39.9 28.5-36.8-35.2 12.1-49.5 48.9-14.3 36.8 35.3-12.1 49.4z" fill="#cc9" opacity=".8"/></svg>