<svg enable-background="new 0 0 350 140" viewBox="0 0 350 140" xmlns="http://www.w3.org/2000/svg"><path d="m268.9 45 96.2 54.5-67 54.5-69.1-39.9z" fill="#f04141" opacity=".8"/><circle cx="67.9" cy="123.9" fill="#10dc60" opacity=".8" r="57.5"/><path d="m69.3-29 84.4 15.4-69 69z" fill="#3880ff" opacity=".8"/><path d="m-60.4 48 46.4-26.7 46.3 26.7v53.5l-46.3 26.8-46.3-26.8v-53.5z" fill="#ffce00" opacity=".8"/><circle cx="337.4" cy="6.5" fill="#7044ff" opacity=".8" r="38.5"/><path d="m311.1 105.8c1.4-2.4 4.5-3.3 7-1.9l69 39.8c2.4 1.4 3.3 4.5 1.9 7-1.4 2.4-4.5 3.3-7 1.9l-69-39.8c-2.5-1.4-3.3-4.5-1.9-7z" fill="#11d3ea" opacity=".8"/><path d="m151.5 82.1 84.9 8.1c5.5.5 9.5 5.4 9 10.9 0 .2 0 .3-.1.5l-12.3 85.7c-.8 5.5-5.9 9.3-11.3 8.5-.1 0-.2 0-.3 0l-86.4-15.3c-5.4-1-9.1-6.1-8.1-11.6l13.9-78.6c.8-5.1 5.5-8.7 10.7-8.2z" fill="#7044ff" opacity=".8"/><circle cx="38.8" cy="13.2" fill="#0cd1e8" opacity=".8" r="20.5"/><path d="m262 41.7-26.2 1.3-8.3-13.1c0-10.8 3.5-32 13.5-36.1l41.6 10.9z" fill="#099" opacity=".8"/><path d="m181 7.7-14 8 28.1 16 13.6-8z" fill="#032722"/><path d="m194.7 31.7v13.2l14-8v-13.2z" fill="#009e8c"/><path d="m167 31.7-14-8v32.1l14.4 8v-16z" fill="#032722"/><path d="m178.6 24.9-13.6-8-12 6.8 14 8z" fill="#009e8c"/><path d="m181 55.8v16l28.1-16v-16l-24.9 14z" fill="#032722"/><path d="m169 48.9v16l12 6.8v-16z" fill="#009e8c"/></svg>