<svg xmlns="http://www.w3.org/2000/svg" viewBox="0 0 350 140"><style>.st4{opacity:.8;fill:#9c9}.st10{fill:#099}.st11{fill:#6cc}</style><path opacity=".1" fill="#3cf" d="M0 0h350v140H0z"/><path d="M282.3 53.3l96.2 54.5-67 54.5-69.1-39.9 39.9-69.1z" opacity=".8" fill="#336"/><circle cy="146.9" r="51.7" opacity=".8" fill="#066"/><path d="M-54.7-37.3L54.7 52.1l-84.5 48.8-24.9-138.2z" opacity=".8" fill="#3880ff"/><path class="st4" d="M128 166.8l-34.2 4.1c-8.5 1-16.8-2.5-22-9.3l-12.4-16.4a23.8 23.8 0 0 1-2.9-23.7l8-18.9c3.3-7.8 10.6-13.3 19.1-14.4l20.4-2.5c8.5-1.1 16.9 2.5 22 9.4l12.3 16.4c5.1 6.8 6.2 15.8 2.9 23.7L128 166.8z"/><circle cx="125.5" cy="-6.7" r="38.5" opacity=".8" fill="#069"/><path d="M285.7 89.7c1.4-2.4 4.5-3.3 7-1.9l69 39.8c2.4 1.4 3.3 4.5 1.9 7a5.18 5.18 0 0 1-7 1.9l-69-39.8a5.09 5.09 0 0 1-1.9-7z" opacity=".8" fill="#11d3ea"/><path d="M181.6 100.7l67.3-11.3a7.9 7.9 0 0 1 9.2 6.6c0 .2.1.2 0 .4l8.2 68.8a8 8 0 0 1-7 8.9c-.1 0-.2 0-.2.1l-69.9 6.1c-4.4.3-8.3-2.8-8.7-7.3l-5.5-63.6c-.4-4.2 2.5-8 6.6-8.7z" opacity=".8" fill="#3cf"/><circle cx="301.4" cy="35.2" r="20.5" opacity=".8" fill="#0cd1e8"/><path d="M103.8 7.1l2.1 42-14.4 9.1c-11.9 0-35.2-3.9-39.7-14.9l23.6-75.2 28.4 39z" opacity=".8" fill="#9fc"/><path class="st4" d="M276.7 14.7l-34.1 34-46.5-12.4-12.5-46.5 80.5-21.6 12.6 46.5z"/><path class="st10" d="M170 36.7l-14 8 28.1 16 13.6-8-27.7-16z"/><path class="st11" d="M183.7 60.7v13.2l14-8V52.7l-14 8z"/><path class="st10" d="M156 60.7l-14-8v32.1l14.4 8v-16l-.4-16.1z"/><path class="st11" d="M167.6 53.9l-13.6-8-12 6.8 14 8 11.6-6.8z"/><path class="st10" d="M170 84.8v16l28.1-16v-16l-24.9 14-3.2 2z"/><path class="st11" d="M158 77.9v16l12 6.8v-16l-12-6.8z"/><path d="M330.8 67.2l-33.2-77.6c-3.6-8.4 1.7-17.9 10.6-19.3l40.2-6.5c6.1-1 12.1 2.2 14.8 7.8l18.5 38.7a14 14 0 0 1-.4 12.9l-25.5 45.4c-5.6 10.1-20.4 9.3-25-1.4z" opacity=".8" fill="#9cf"/></svg>