<svg xmlns="http://www.w3.org/2000/svg" viewBox="0 0 350 140"><path d="M0 0h350v140H0V0z" opacity=".1" fill="#3cf"/><path d="M317.85 67.97l96.2 54.5-67 54.5-69.1-39.9 39.9-69.1z" opacity=".8" fill="#336"/><circle cx="220.66" cy="140" r="46.53" opacity=".8" fill="#066"/><path d="M6.6 53.37l69.6 89.4-106.24 48.8L6.6 53.37z" opacity=".8" fill="#3880ff"/><circle cx="125.5" cy="-6.7" r="38.5" opacity=".8" fill="#069"/><path d="M280.4-40.8l67.3-11.3a7.9 7.9 0 0 1 9.16 6.4l.04.2c0 .2.1.2 0 .4l8.2 68.8a8 8 0 0 1-7 8.9c-.1 0-.2 0-.2.1L288 38.8c-4.4.3-8.3-2.8-8.7-7.3l-5.5-63.6c-.4-4.2 2.5-8 6.6-8.7z" opacity=".8" fill="#3cf"/><circle cx="105" cy="101.97" r="20.5" opacity=".8" fill="#0cd1e8"/><path d="M40.17 1L-12.5 25 50.4 73l51.49-24L40.17 1z" opacity=".8" fill="#099"/><path d="M266.36 50.58l11.1 85.77 42-24-11.1-85.77-42 24z" opacity=".8" fill="#6cc"/><path d="M202 37h-21l-3 9h-30a6 6 0 0 0-6 6v45c0 3.3 2.7 6 6 6h27l3-9h24a6 6 0 0 0 6-6V43a6 6 0 0 0-6-6zm-32.88 35.85a33.72 33.72 0 0 1-2.58 3.3 30.06 30.06 0 0 1-6.15-10.41h11.1l-2.37 7.11zm3.66-10.98h-4.32V58h-3.87v3.87H151v3.9h5.7c1.44 4.7 3.9 9.02 7.2 12.66l.06.06-9.9 9.75 2.76 2.76 9.3-9.3L163 91l6 7.5h-19.5a3 3 0 0 1-3-3v-42a3 3 0 0 1 3-3h27.12l-3.84 11.37zm28.2 9.66c0 3.12-.18 5.34-.6 6.66a6.67 6.67 0 0 1-1.98 3.27 8.77 8.77 0 0 1-3.12 1.8c-1.17.39-2.46.6-3.9.6s-2.73-.21-3.9-.6a9.03 9.03 0 0 1-3.12-1.8 6.96 6.96 0 0 1-2.01-3.3c-.48-2.17-.68-4.4-.6-6.63V52.6h4.17v20.76c0 1.5.03 2.55.12 3.21.09.66.24 1.11.42 1.44a4.2 4.2 0 0 0 1.92 1.83c.81.42 1.8.6 3 .6s2.19-.18 3-.6 1.47-1.02 1.92-1.8c.21-.36.33-.84.42-1.5.09-.6.12-1.65.12-3.12V52.66h4.14v18.87z" fill="#3cf"/></svg>