<svg xmlns="http://www.w3.org/2000/svg" viewBox="0 0 350 140"><style>.st2{opacity:.8;fill:#699}.st10{fill:#399}</style><path d="M0 0h350v140H0V0z" opacity=".1" fill="#3cf"/><path d="M-9.2 4l74.1 70.1L-4.5 116l-53.1-51.1L-9.2 4z" opacity=".8" fill="#9cc"/><circle class="st2" cx="298.7" cy="133" r="57.5"/><path d="M170.1-52.4L237.9.2l-93.1 29.4 25.3-82z" opacity=".8" fill="#3880ff"/><path d="M170 130.9l31.8-29c1.9-1.7 4.5-2.5 7.1-1.9l28.8-3.6c2.9.6 18.5 15.3 19.3 18.2l9.9 36.4c.8 2.9-.1 6-2.3 8l-31.7 29a7.94 7.94 0 0 1-7.1 1.9l-42.1-8.9c-2.9-.6-5.3-2.8-6.1-5.7l-10-36.3c-.7-3.1.2-6.2 2.4-8.1z" opacity=".8" fill="#99c"/><circle cx="-5.6" cy="126.3" r="38.5" opacity=".8" fill="#7044ff"/><path d="M332 47.8c-2.1 2.2-5.1 2.1-6.7-.3l-45.2-68.1c-1.6-2.4-1.2-6.1.9-8.4 2.1-2.2 3.1-2.1 4.7.3l47.2 68.1c1.7 2.4 1.2 6.1-.9 8.4z" opacity=".8" fill="#11d3ea"/><path d="M288.7 57.6c-4.5-2.5-6.2-8.2-4.2-14.9l37.8-76.5c2.8-3 8.7-4.9 13.7-2.6" opacity=".8" fill="#669"/><ellipse transform="rotate(-71.57 241.19 52.55)" cx="241.2" cy="52.5" rx="20.5" ry="20.5" opacity=".8" fill="#0cd1e8"/><path d="M365.7 80.4l-44.1-8.9c-34-7.4-1.8-56.8 13.2-61.2l40.6 26.9-9.7 43.2z" opacity=".8" fill="#099"/><path class="st2" d="M68.1 43L50.3 8l5.4-34 33-17 22.8 27-8.8 36.5L68.1 43z"/><path class="st10" d="M207 50l-14.7-12.2-4.2 4.8 14.7 12.2L207 50zm-64 .2l14.7-12.3 4.1 4.9-14.7 12.3-4.1-4.9zm32 5.8v17.3l-12.2 12.2a17.2 17.2 0 0 0 24.3 0 17.2 17.2 0 0 0 0-24.3C184 57.6 179.5 56 175 56z"/><path class="st10" d="M175 44.5c-16 0-28.8 12.8-28.8 28.8s12.8 28.8 28.8 28.8 28.8-12.8 28.8-28.8S191 44.5 175 44.5zm0 51.9c-12.8 0-23-10.2-23-23s10.2-23 23-23 23 10.2 23 23-10.2 23-23 23z"/><path d="M126.8 81.3l-9.5 38.1L87 162l-15.5-56.7L86 75.5l40.8 5.8z" opacity=".8" fill="#9c9"/></svg>