<svg enable-background="new 0 0 350 140" viewBox="0 0 350 140" xmlns="http://www.w3.org/2000/svg"><path d="m-9.2 4 74.1 70.1-69.4 41.9-53.1-51.1z" fill="#9cc" opacity=".8"/><circle cx="298.7" cy="140" fill="#699" opacity=".8" r="57.5"/><path d="m49.7 99 67.8 52.6-93.1 29.4z" fill="#3880ff" opacity=".8"/><path d="m127.7 120.7 31.8-29c1.9-1.7 4.5-2.5 7.1-1.9l28.8-3.6c2.9.6 18.5 15.3 19.3 18.2l9.9 36.4c.8 2.9-.1 6-2.3 8l-31.7 29c-1.9 1.7-4.5 2.5-7.1 1.9l-42.1-8.9c-2.9-.6-5.3-2.8-6.1-5.7l-10-36.3c-.7-3 .2-6.1 2.4-8.1z" fill="#99c" opacity=".8"/><circle cx="-21.6" cy="118" fill="#7044ff" opacity=".8" r="38.5"/><path d="m332 47.8c-2.1 2.2-5.1 2.1-6.7-.3l-45.2-68.1c-1.6-2.4-1.2-6.1.9-8.4 2.1-2.2 3.1-2.1 4.7.3l47.2 68.1c1.7 2.4 1.2 6.1-.9 8.4z" fill="#11d3ea" opacity=".8"/><path d="m278.5 47.6c-4-3.2-4.8-9.1-1.8-15.4l49.3-69.6c3.2-2.5 9.4-3.5 13.9-.4" fill="#669" opacity=".8"/><ellipse cx="239.3" cy="60" fill="#0cd1e8" opacity=".8" rx="20.5" ry="20.5" transform="matrix(.1602 -.9871 .9871 .1602 141.7431 286.5991)"/><path d="m357.8 78.1-44.1-8.9c-34-7.4-1.8-56.8 13.2-61.2l40.6 26.9z" fill="#099" opacity=".8"/><path d="m68.1 43-17.8-35 5.4-34 33-17 22.8 27-8.8 36.5z" fill="#699" opacity=".8"/><path d="m205.9 25.5h-59.5l-12.5-46.8 55-46.8z" fill="#366" opacity=".8"/><g fill="none" stroke="#6cc" stroke-miterlimit="10"><circle cx="144.3" cy="62.3" r="36.8" stroke-width="16"/><path d="m144.3 62.3h36.7" stroke-width="8"/><path d="m144.3 62.3v36.7" stroke-width="8"/></g></svg>